<svg width="101" height="101" viewBox="0 0 101 101" fill="none" xmlns="http://www.w3.org/2000/svg">
<rect width="101" height="101" fill="#C9E4F9"/>
<g filter="url(#filter0_d_2320_16120)">
<path d="M52.5223 20.1021C54.5298 17.9152 57.6233 17.5893 60.1463 18.4175C62.7293 19.2655 65.0936 21.4154 65.7811 24.6802C66.0933 26.1629 65.9664 27.884 65.8182 29.1412C65.9148 29.0999 66.0154 29.0588 66.118 29.0142C66.9721 28.6429 68.0236 28.1624 68.951 27.7877C69.8319 27.4318 70.9061 27.0391 71.828 26.9615C73.5795 26.814 75.3041 27.0939 76.6962 27.983C78.1469 28.9095 79.0532 30.387 79.245 32.1929C79.4663 34.2768 79.081 36.6214 78.3358 38.6646C77.9749 39.6542 77.5002 40.6494 76.913 41.5474C76.9984 41.5674 77.0838 41.5866 77.1678 41.607C77.6731 41.7298 78.3973 41.9154 78.9344 42.2007C79.6457 42.5787 80.5422 43.0821 81.3758 43.6636C82.169 44.217 83.0936 44.968 83.6825 45.8922C84.7008 47.4906 84.8804 49.4929 84.5438 51.2486C84.2044 53.0184 83.286 54.8381 81.7196 56.0494C79.9411 57.4245 77.7126 57.6967 75.9911 57.689C75.8381 57.6883 75.686 57.6823 75.535 57.6773C78.9182 61.8595 78.9782 67.9922 76.3368 72.355C74.3262 75.6758 70.3478 75.9377 67.3251 75.4039C64.8696 74.9701 62.3331 73.9135 60.4881 72.606C60.4452 72.7583 60.3977 72.9242 60.3505 73.106C60.1141 74.0155 59.8142 75.3453 59.5096 76.4146C59.2087 77.471 58.7832 78.7507 58.0956 79.6675C57.1633 80.9105 56.098 81.7614 54.7059 82.0757C53.4598 82.357 52.1901 82.1333 51.1249 81.9322C48.1926 81.3785 46.5431 79.2058 45.4823 77.3433C44.9506 76.4097 44.4855 75.4016 44.0956 74.6021C43.8795 74.1592 43.6844 73.7776 43.5008 73.4507C43.3487 73.5314 43.1721 73.6313 42.9725 73.7545C42.4699 74.0647 41.94 74.439 41.4315 74.8072C40.9678 75.143 40.4398 75.5361 40.0712 75.7711C36.6716 77.9377 33.2091 77.5454 30.5946 75.7252C29.2034 74.7563 28.5603 73.2602 28.3055 71.8599C28.0498 70.4542 28.1386 68.9318 28.3963 67.5357C28.6426 66.2022 29.0624 64.8864 29.5809 63.7574C29.4772 63.7468 29.372 63.7361 29.2655 63.7252C28.2466 63.6204 27.1264 63.5027 26.1454 63.3707C25.2284 63.2473 24.2289 63.0866 23.5653 62.856C20.8938 61.9277 19.4371 60.0866 18.7088 58.1851C18.0148 56.3729 17.9871 54.5285 18.0028 53.4381C18.0379 51.0085 19.6825 48.9091 21.2333 47.5191C22.2433 46.6138 23.4331 45.8107 24.6044 45.2545C24.4333 45.0166 24.2481 44.759 24.0184 44.4293C23.6413 43.8878 23.2155 43.2427 22.9003 42.5836C22.4764 41.6973 22.0085 40.4444 21.8075 39.0855C21.6097 37.7476 21.6395 36.0814 22.4833 34.5777C23.2369 33.2346 24.5055 32.4477 25.6805 31.9713C26.8721 31.4881 28.1912 31.2323 29.3671 31.0855C30.3208 30.9665 31.2419 30.9121 32.0077 30.8814C31.9441 30.6455 31.8737 30.386 31.7987 30.0982C31.3638 28.4297 30.7619 25.8906 31.1913 23.7066C31.5508 21.8782 32.2772 20.4145 33.4354 19.4273C34.6109 18.4256 35.9916 18.1183 37.245 18.15C39.6084 18.2098 41.91 19.4746 43.1053 20.2711C43.7364 20.6916 44.3631 21.3378 44.8915 21.9273C45.4489 22.5492 46.038 23.2716 46.5868 23.9439C47.1507 24.6349 47.6726 25.2736 48.1434 25.8004C48.2356 25.9035 48.3224 25.9956 48.4012 26.0797C48.7258 25.7122 49.109 25.2058 49.5311 24.5904C50.0915 23.7734 50.638 22.891 51.1405 22.0924C51.5805 21.3931 52.1064 20.5553 52.5223 20.1021Z" fill="#FFE381"/>
<path d="M52.5223 20.1021L49.9439 17.7353L49.9437 17.7355L52.5223 20.1021ZM60.1463 18.4175L61.2381 15.0922L61.238 15.0921L60.1463 18.4175ZM65.7811 24.6802L69.206 23.9591L69.206 23.9591L65.7811 24.6802ZM65.8182 29.1412L62.3423 28.7315L61.6348 34.7341L67.1931 32.3598L65.8182 29.1412ZM66.118 29.0142L67.5135 32.224L67.5135 32.224L66.118 29.0142ZM68.951 27.7877L67.6399 24.5425L67.6399 24.5425L68.951 27.7877ZM71.828 26.9615L71.5343 23.4738L71.5342 23.4738L71.828 26.9615ZM76.6962 27.983L78.58 25.0332L78.58 25.0332L76.6962 27.983ZM79.245 32.1929L82.7254 31.8233V31.8232L79.245 32.1929ZM78.3358 38.6646L81.6239 39.8639L81.624 39.8638L78.3358 38.6646ZM76.9129 41.5474L73.9837 39.6319L71.2475 43.8161L76.1154 44.9553L76.9129 41.5474ZM77.1678 41.607L77.9945 38.206L77.9944 38.206L77.1678 41.607ZM78.9344 42.2007L80.5767 39.11L80.5766 39.1099L78.9344 42.2007ZM81.3758 43.6636L83.3784 40.7932L83.3784 40.7931L81.3758 43.6636ZM83.6825 45.8922L86.6344 44.0117L86.6342 44.0113L83.6825 45.8922ZM84.5438 51.2486L87.9812 51.9078L87.9812 51.9076L84.5438 51.2486ZM81.7196 56.0494L83.8605 58.8182L83.8605 58.8182L81.7196 56.0494ZM75.9911 57.689L75.9755 61.189H75.9755L75.9911 57.689ZM75.535 57.6773L75.6509 54.1792L67.9983 53.9257L72.8139 59.8786L75.535 57.6773ZM76.3368 72.355L79.3308 74.1678L79.3308 74.1677L76.3368 72.355ZM67.3251 75.4039L66.7162 78.8505L66.7163 78.8505L67.3251 75.4039ZM60.4881 72.606L62.5119 69.7504L58.4652 66.8826L57.1194 71.6564L60.4881 72.606ZM60.3504 73.106L56.9629 72.2258V72.2258L60.3504 73.106ZM59.5096 76.4146L62.8757 77.3734L62.8758 77.3734L59.5096 76.4146ZM58.0956 79.6675L60.8955 81.7677L60.8956 81.7675L58.0956 79.6675ZM54.7059 82.0758L55.4765 85.4899L55.4767 85.4898L54.7059 82.0758ZM51.1249 81.9322L50.4755 85.3714L50.4755 85.3714L51.1249 81.9322ZM45.4823 77.3433L42.441 79.0755L42.441 79.0755L45.4823 77.3433ZM44.0956 74.6021L47.2413 73.0677L47.2413 73.0677L44.0956 74.6021ZM43.5008 73.4507L46.5528 71.7374L44.8803 68.7583L41.8617 70.3583L43.5008 73.4507ZM42.9725 73.7545L41.1344 70.776L41.1344 70.776L42.9725 73.7545ZM41.4315 74.8072L39.3787 71.9724H39.3787L41.4315 74.8072ZM40.0712 75.7711L41.9522 78.7226L41.9523 78.7226L40.0712 75.7711ZM30.5946 75.7252L28.5944 78.5973L28.5948 78.5976L30.5946 75.7252ZM28.3055 71.8599L24.862 72.4863L24.8621 72.4865L28.3055 71.8599ZM28.3963 67.5357L24.9545 66.9002L24.9545 66.9003L28.3963 67.5357ZM29.5809 63.7574L32.7615 65.2182L34.8025 60.7744L29.9379 60.2756L29.5809 63.7574ZM29.2655 63.7252L28.9074 67.2068H28.9074L29.2655 63.7252ZM26.1454 63.3707L25.6785 66.8394L25.6786 66.8394L26.1454 63.3707ZM23.5653 62.856L22.4165 66.1621L22.4165 66.1621L23.5653 62.856ZM18.7088 58.1851L15.4403 59.4368L15.4403 59.4369L18.7088 58.1851ZM18.0028 53.4381L14.5032 53.3874L14.5032 53.3876L18.0028 53.4381ZM21.2333 47.5191L18.8972 44.9128L18.8972 44.9128L21.2333 47.5191ZM24.6044 45.2545L26.1059 48.416L29.8953 46.6163L27.4457 43.2107L24.6044 45.2545ZM24.0184 44.4293L21.1463 46.4295L21.1463 46.4296L24.0184 44.4293ZM22.9003 42.5836L19.7428 44.0936L19.7428 44.0936L22.9003 42.5836ZM21.8075 39.0855L18.3451 39.5974L18.3451 39.5976L21.8075 39.0855ZM22.4833 34.5777L19.431 32.865L19.4309 32.865L22.4833 34.5777ZM25.6805 31.9713L24.3654 28.7277L24.3653 28.7278L25.6805 31.9713ZM29.3671 31.0855L28.9336 27.6125L28.9336 27.6125L29.3671 31.0855ZM32.0077 30.8814L32.1477 34.3786L36.5271 34.2033L35.3872 29.9712L32.0077 30.8814ZM31.7987 30.0982L28.4119 30.9811L28.4119 30.9811L31.7987 30.0982ZM31.1913 23.7066L27.757 23.0313L27.757 23.0314L31.1913 23.7066ZM33.4354 19.4273L31.1652 16.7635L31.1651 16.7635L33.4354 19.4273ZM37.245 18.15L37.3335 14.6511L37.3334 14.6511L37.245 18.15ZM43.1053 20.2711L45.0464 17.3586L45.046 17.3584L43.1053 20.2711ZM44.8915 21.9273L47.4977 19.5912L47.4977 19.5912L44.8915 21.9273ZM46.5868 23.9439L43.8753 26.157L43.8753 26.157L46.5868 23.9439ZM48.1434 25.8004L45.534 28.1329V28.1329L48.1434 25.8004ZM48.4012 26.0797L45.8489 28.4745L48.4794 31.2781L51.0244 28.3967L48.4012 26.0797ZM49.5311 24.5904L52.4174 26.5701L52.4174 26.5701L49.5311 24.5904ZM51.1405 22.0924L48.1781 20.2285L48.1781 20.2285L51.1405 22.0924ZM52.5223 20.1021L55.1007 22.469C55.9305 21.565 57.4478 21.2155 59.0547 21.743L60.1463 18.4175L61.238 15.0921C57.7988 13.9632 53.1291 14.2655 49.9439 17.7353L52.5223 20.1021ZM60.1463 18.4175L59.0546 21.7429C60.6066 22.2524 61.9582 23.511 62.3562 25.4014L65.7811 24.6802L69.206 23.9591C68.2291 19.3198 64.8521 16.2787 61.2381 15.0922L60.1463 18.4175ZM65.7811 24.6802L62.3562 25.4014C62.5426 26.2868 62.485 27.5208 62.3423 28.7315L65.8182 29.1412L69.2942 29.5509C69.4478 28.2473 69.6439 26.039 69.206 23.9591L65.7811 24.6802ZM65.8182 29.1412L67.1931 32.3598C67.1944 32.3593 67.424 32.2629 67.5135 32.224L66.118 29.0142L64.7226 25.8044C64.6068 25.8548 64.6351 25.8406 64.4434 25.9225L65.8182 29.1412ZM66.118 29.0142L67.5135 32.224C68.4598 31.8126 69.3887 31.3857 70.2622 31.0328L68.951 27.7877L67.6399 24.5425C66.6585 24.939 65.4844 25.4732 64.7226 25.8044L66.118 29.0142ZM68.951 27.7877L70.2622 31.0328C71.1646 30.6682 71.7895 30.4771 72.1218 30.4491L71.828 26.9615L71.5342 23.4738C70.0227 23.6012 68.4992 24.1953 67.6399 24.5425L68.951 27.7877ZM71.828 26.9615L72.1216 30.4492C73.3562 30.3452 74.25 30.5736 74.8123 30.9327L76.6962 27.983L78.58 25.0332C76.3583 23.6143 73.8028 23.2828 71.5343 23.4738L71.828 26.9615ZM76.6962 27.983L74.8123 30.9327C75.3308 31.2639 75.6806 31.772 75.7646 32.5626L79.245 32.1929L82.7254 31.8232C82.4257 29.0021 80.9631 26.5552 78.58 25.0332L76.6962 27.983ZM79.245 32.1929L75.7646 32.5626C75.9181 34.008 75.6511 35.8109 75.0476 37.4654L78.3358 38.6646L81.624 39.8638C82.5108 37.432 83.0145 34.5457 82.7254 31.8233L79.245 32.1929ZM78.3358 38.6646L75.0477 37.4654C74.7628 38.2463 74.4011 38.9935 73.9837 39.6319L76.9129 41.5474L79.8422 43.463C80.5992 42.3054 81.1869 41.0621 81.6239 39.8639L78.3358 38.6646ZM76.9129 41.5474L76.1154 44.9553C76.247 44.9862 76.2731 44.9914 76.3412 45.008L77.1678 41.607L77.9944 38.206C77.8946 38.1817 77.7499 38.1487 77.7105 38.1395L76.9129 41.5474ZM77.1678 41.607L76.3412 45.008C76.5804 45.0661 76.7964 45.1214 76.9941 45.1832C77.2063 45.2496 77.2932 45.2921 77.2922 45.2916L78.9344 42.2007L80.5766 39.1099C79.5917 38.5866 78.4427 38.315 77.9945 38.206L77.1678 41.607ZM78.9344 42.2007L77.2922 45.2915C77.9561 45.6443 78.7096 46.0711 79.3733 46.5341L81.3758 43.6636L83.3784 40.7931C82.3748 40.093 81.3354 39.5131 80.5767 39.11L78.9344 42.2007ZM81.3758 43.6636L79.3733 46.5341C79.6899 46.755 79.9833 46.9815 80.2332 47.2119C80.4875 47.4464 80.6443 47.6373 80.7308 47.773L83.6825 45.8922L86.6342 44.0113C85.6645 42.4895 84.2738 41.4178 83.3784 40.7932L81.3758 43.6636ZM83.6825 45.8922L80.7306 47.7726C81.1463 48.4252 81.3233 49.4583 81.1064 50.5896L84.5438 51.2486L87.9812 51.9076C88.4375 49.5274 88.2552 46.5559 86.6344 44.0117L83.6825 45.8922ZM84.5438 51.2486L81.1064 50.5894C80.8917 51.709 80.3332 52.6971 79.5786 53.2806L81.7196 56.0494L83.8605 58.8182C86.2389 56.9792 87.5171 54.3278 87.9812 51.9078L84.5438 51.2486ZM81.7196 56.0494L79.5787 53.2805C78.7255 53.9402 77.4562 54.1955 76.0066 54.1891L75.9911 57.689L75.9755 61.189C77.969 61.1978 81.1568 60.9087 83.8605 58.8182L81.7196 56.0494ZM75.9911 57.689L76.0067 54.1891C75.9181 54.1887 75.8345 54.1853 75.6509 54.1792L75.535 57.6773L75.4191 61.1754C75.5375 61.1793 75.7582 61.188 75.9755 61.189L75.9911 57.689ZM75.535 57.6773L72.8139 59.8786C75.1762 62.7987 75.3 67.3096 73.3428 70.5423L76.3368 72.355L79.3308 74.1677C82.6565 68.6748 82.6603 60.9203 78.2561 55.4761L75.535 57.6773ZM76.3368 72.355L73.3428 70.5423C72.9021 71.2701 72.2627 71.6997 71.3461 71.9334C70.3554 72.1859 69.1376 72.1698 67.9338 71.9572L67.3251 75.4039L66.7163 78.8505C70.0596 79.441 76.1244 79.4636 79.3308 74.1678L76.3368 72.355ZM67.3251 75.4039L67.9339 71.9572C65.9614 71.6088 63.9133 70.7436 62.5119 69.7504L60.4881 72.606L58.4644 75.4616C60.7529 77.0835 63.7777 78.3314 66.7162 78.8505L67.3251 75.4039ZM60.4881 72.606L57.1194 71.6564C57.0815 71.7911 57.0216 72.0002 56.9629 72.2258L60.3504 73.106L63.738 73.9863C63.7738 73.8482 63.809 73.7254 63.8568 73.5557L60.4881 72.606ZM60.3504 73.106L56.9629 72.2258C56.6737 73.3391 56.4426 74.4057 56.1435 75.4559L59.5096 76.4146L62.8758 77.3734C63.1858 76.2848 63.5546 74.6919 63.738 73.9863L60.3504 73.106ZM59.5096 76.4146L56.1435 75.4558C55.8429 76.5113 55.5562 77.22 55.2955 77.5676L58.0956 79.6675L60.8956 81.7675C62.0101 80.2815 62.5746 78.4307 62.8757 77.3734L59.5096 76.4146ZM58.0956 79.6675L55.2957 77.5674C54.6792 78.3893 54.2615 78.588 53.9351 78.6617L54.7059 82.0758L55.4767 85.4898C57.9346 84.9349 59.6474 83.4317 60.8955 81.7677L58.0956 79.6675ZM54.7059 82.0758L53.9353 78.6616C53.7516 78.7031 53.4911 78.7236 53.1118 78.6948C52.7204 78.6652 52.3087 78.5939 51.7742 78.493L51.1249 81.9322L50.4755 85.3714C51.4765 85.5604 53.4284 85.9521 55.4765 85.4899L54.7059 82.0758ZM51.1249 81.9322L51.7743 78.493C50.406 78.2346 49.4454 77.2296 48.5236 75.6111L45.4823 77.3433L42.441 79.0755C43.6408 81.182 45.9791 84.5224 50.4755 85.3714L51.1249 81.9322ZM45.4823 77.3433L48.5236 75.6112C48.0648 74.8056 47.6772 73.9615 47.2413 73.0677L44.0956 74.6021L40.9498 76.1365C41.2938 76.8417 41.8363 78.0138 42.441 79.0755L45.4823 77.3433ZM44.0956 74.6021L47.2413 73.0677C47.0115 72.5966 46.7831 72.1477 46.5528 71.7374L43.5008 73.4507L40.4489 75.1641C40.5856 75.4076 40.7475 75.7218 40.9498 76.1365L44.0956 74.6021ZM43.5008 73.4507L41.8617 70.3583C41.6426 70.4744 41.3996 70.6123 41.1344 70.776L42.9725 73.7545L44.8106 76.7329C44.9445 76.6503 45.0548 76.5884 45.14 76.5432L43.5008 73.4507ZM42.9725 73.7545L41.1344 70.776C40.5145 71.1585 39.8964 71.5975 39.3787 71.9724L41.4315 74.8072L43.4843 77.642C43.9836 77.2804 44.4252 76.9708 44.8107 76.7329L42.9725 73.7545ZM41.4315 74.8072L39.3787 71.9724C38.8295 72.3701 38.4428 72.6585 38.19 72.8195L40.0712 75.7711L41.9523 78.7226C42.4368 78.4138 43.106 77.9159 43.4843 77.642L41.4315 74.8072ZM40.0712 75.7711L38.1901 72.8195C36.0446 74.1869 34.1123 73.9095 32.5944 72.8528L30.5946 75.7252L28.5948 78.5976C32.3058 81.1813 37.2985 81.6885 41.9522 78.7226L40.0712 75.7711ZM30.5946 75.7252L32.5948 72.853C32.2302 72.5991 31.9076 72.1053 31.749 71.2333L28.3055 71.8599L24.8621 72.4865C25.213 74.4152 26.1765 76.9135 28.5944 78.5973L30.5946 75.7252ZM28.3055 71.8599L31.749 71.2335C31.5922 70.3712 31.6301 69.2984 31.8382 68.1711L28.3963 67.5357L24.9545 66.9003C24.6471 68.5653 24.5075 70.5372 24.862 72.4863L28.3055 71.8599ZM28.3963 67.5357L31.8382 68.1712C32.033 67.1158 32.3667 66.0778 32.7615 65.2182L29.5809 63.7574L26.4003 62.2966C25.7581 63.695 25.2521 65.2886 24.9545 66.9002L28.3963 67.5357ZM29.5809 63.7574L29.9379 60.2756C29.8219 60.2637 29.7352 60.255 29.6235 60.2435L29.2655 63.7252L28.9074 67.2068C29.0088 67.2172 29.1325 67.2298 29.2239 67.2391L29.5809 63.7574ZM29.2655 63.7252L29.6235 60.2435C28.5997 60.1382 27.5313 60.0256 26.6122 59.9019L26.1454 63.3707L25.6786 66.8394C26.7215 66.9798 27.8935 67.1025 28.9074 67.2068L29.2655 63.7252ZM26.1454 63.3707L26.6122 59.9019C25.6537 59.7729 24.9954 59.6477 24.7141 59.5499L23.5653 62.856L22.4165 66.1621C23.4625 66.5256 24.8031 66.7216 25.6785 66.8394L26.1454 63.3707ZM23.5653 62.856L24.7141 59.5499C23.1639 59.0113 22.3957 58.0258 21.9774 56.9334L18.7088 58.1851L15.4403 59.4369C16.4784 62.1474 18.6238 64.8442 22.4165 66.1621L23.5653 62.856ZM18.7088 58.1851L21.9774 56.9334C21.5339 55.7755 21.4879 54.4936 21.5024 53.4885L18.0028 53.4381L14.5032 53.3876C14.4862 54.5635 14.4957 56.9703 15.4403 59.4368L18.7088 58.1851ZM18.0028 53.4381L21.5024 53.4887C21.5086 53.0603 21.6589 52.5343 22.0403 51.907C22.4239 51.2761 22.9713 50.6615 23.5693 50.1254L21.2333 47.5191L18.8972 44.9128C17.1307 46.4962 14.56 49.4583 14.5032 53.3874L18.0028 53.4381ZM21.2333 47.5191L23.5693 50.1254C24.3472 49.4282 25.2591 48.8182 26.1059 48.416L24.6044 45.2545L23.1028 42.0929C21.6072 42.8032 20.1393 43.7995 18.8972 44.9128L21.2333 47.5191ZM24.6044 45.2545L27.4457 43.2107C27.2756 42.9742 27.1037 42.7352 26.8905 42.429L24.0184 44.4293L21.1463 46.4296C21.3924 46.7828 21.591 47.059 21.763 47.2982L24.6044 45.2545ZM24.0184 44.4293L26.8905 42.429C26.535 41.9185 26.2449 41.4648 26.0577 41.0735L22.9003 42.5836L19.7428 44.0936C20.1861 45.0207 20.7477 45.8572 21.1463 46.4295L24.0184 44.4293ZM22.9003 42.5836L26.0578 41.0735C25.7392 40.4074 25.4062 39.4953 25.2698 38.5734L21.8075 39.0855L18.3451 39.5976C18.6107 41.3935 19.2136 42.9871 19.7428 44.0936L22.9003 42.5836ZM21.8075 39.0855L25.2698 38.5736C25.1311 37.6349 25.2196 36.8536 25.5356 36.2904L22.4833 34.5777L19.4309 32.865C18.0595 35.3091 18.0883 37.8602 18.3451 39.5974L21.8075 39.0855ZM22.4833 34.5777L25.5356 36.2904C25.7433 35.9202 26.1899 35.5415 26.9958 35.2147L25.6805 31.9713L24.3653 28.7278C22.821 29.354 20.7305 30.549 19.431 32.865L22.4833 34.5777ZM25.6805 31.9713L26.9957 35.2148C27.7872 34.8938 28.7685 34.6874 29.8006 34.5586L29.3671 31.0855L28.9336 27.6125C27.6139 27.7772 25.9571 28.0824 24.3654 28.7277L25.6805 31.9713ZM29.3671 31.0855L29.8005 34.5586C30.6173 34.4566 31.43 34.4073 32.1477 34.3786L32.0077 30.8814L31.8677 27.3842C31.0539 27.4168 30.0243 27.4763 28.9336 27.6125L29.3671 31.0855ZM32.0077 30.8814L35.3872 29.9712C35.3217 29.7277 35.256 29.4858 35.1855 29.2153L31.7987 30.0982L28.4119 30.9811C28.4914 31.2863 28.5666 31.5633 28.6281 31.7917L32.0077 30.8814ZM31.7987 30.0982L35.1855 29.2153C34.9751 28.408 34.7608 27.5241 34.6392 26.6261C34.5153 25.7108 34.5134 24.9523 34.6255 24.3818L31.1913 23.7066L27.757 23.0314C27.152 26.1086 27.9984 29.3949 28.4119 30.9811L31.7987 30.0982ZM31.1913 23.7066L34.6255 24.3819C34.8861 23.0566 35.3304 22.411 35.7057 22.0911L33.4354 19.4273L31.1651 16.7635C29.224 18.4179 28.2155 20.6998 27.757 23.0313L31.1913 23.7066ZM33.4354 19.4273L35.7056 22.0912C36.0671 21.7831 36.5334 21.6331 37.1566 21.6489L37.245 18.15L37.3334 14.6511C35.4499 14.6035 33.1546 15.068 31.1652 16.7635L33.4354 19.4273ZM37.245 18.15L37.1565 21.6488C37.7693 21.6644 38.4974 21.8458 39.272 22.1671C40.0319 22.4823 40.7041 22.8769 41.1646 23.1837L43.1053 20.2711L45.046 17.3584C43.7037 16.464 40.7147 14.7366 37.3335 14.6511L37.245 18.15ZM43.1053 20.2711L41.1643 23.1835C41.3978 23.3391 41.774 23.6931 42.2852 24.2635L44.8915 21.9273L47.4977 19.5912C46.9522 18.9826 46.0749 18.0441 45.0464 17.3586L43.1053 20.2711ZM44.8915 21.9273L42.2852 24.2634C42.7782 24.8135 43.3138 25.4691 43.8753 26.157L46.5868 23.9439L49.2983 21.7308C48.7623 21.0742 48.1197 20.285 47.4977 19.5912L44.8915 21.9273ZM46.5868 23.9439L43.8753 26.157C44.4255 26.8311 45.0003 27.5358 45.534 28.1329L48.1434 25.8004L50.7529 23.4678C50.3449 23.0114 49.876 22.4387 49.2983 21.7308L46.5868 23.9439ZM48.1434 25.8004L45.534 28.1329C45.6596 28.2735 45.7768 28.3977 45.8489 28.4745L48.4012 26.0797L50.9536 23.6848C50.868 23.5935 50.8116 23.5335 50.7529 23.4678L48.1434 25.8004ZM48.4012 26.0797L51.0244 28.3967C51.481 27.8798 51.9546 27.2448 52.4174 26.5701L49.5311 24.5904L46.6448 22.6107C46.2634 23.1668 45.9706 23.5446 45.778 23.7626L48.4012 26.0797ZM49.5311 24.5904L52.4174 26.5701C53.0276 25.6805 53.6215 24.7213 54.1029 23.9562L51.1405 22.0924L48.1781 20.2285C47.6544 21.0607 47.1554 21.8662 46.6448 22.6107L49.5311 24.5904ZM51.1405 22.0924L54.1029 23.9562C54.3296 23.5959 54.5405 23.261 54.7419 22.9623C54.8406 22.8161 54.9248 22.6968 54.9948 22.6033C55.0686 22.5047 55.103 22.4665 55.101 22.4687L52.5223 20.1021L49.9437 17.7355C49.2593 18.4813 48.5372 19.6576 48.1781 20.2285L51.1405 22.0924Z" fill="white"/>
</g>
<path d="M33.1534 24.0951C32.4961 27.4385 34.9961 32.53 34.2421 32.7701C33.4882 33.0101 25.9961 32.4064 24.2274 35.5585C23.1424 37.492 23.9776 40.2027 24.7048 41.7232C25.6732 43.748 28.3341 46.2483 26.986 46.5252C24.4712 47.0418 20.0478 50.3215 20.0024 53.4695C19.9724 55.5553 20.1578 59.5574 24.2219 60.9695C25.9961 61.586 33.4961 61.9695 33.0629 62.2665C30.8575 63.7782 28.5116 71.8403 31.7379 74.0866C33.7242 75.4695 36.3117 75.7974 38.9961 74.0866C40.2054 73.3159 43.724 70.3139 44.5953 71.4618C46.4751 73.9382 47.4161 79.1992 51.4961 79.9695C53.7155 80.3886 54.9948 80.4713 56.4961 78.4695C58.2658 76.1098 58.4869 67.988 60.5651 70.0812C63.4375 72.9745 71.9614 75.7229 74.6262 71.3216C76.9841 67.427 76.7648 61.9167 73.5791 58.4695C73.3636 58.2364 71.8791 55.2518 72.192 55.2961C73.7757 55.5203 77.9961 56.4025 80.4961 54.4695C82.7036 52.7627 83.3458 49.0883 81.9961 46.9695C81.2544 45.8053 79.3668 44.6978 77.9961 43.9695C76.8781 43.3755 72.5963 42.9754 73.5791 42.2714C75.9857 40.5477 77.6216 35.8452 77.2563 32.4064C76.9961 29.9568 74.9055 28.7118 71.9961 28.9568C69.6626 29.1532 63.6143 32.9781 63.4961 31.4568C63.4566 30.949 64.3108 27.4072 63.8238 25.0947C62.7787 20.1313 56.6743 18.5392 53.9961 21.4568C52.9515 22.5947 49.5313 29.3849 47.9961 28.4004C46.4961 27.4385 43.6075 23.0111 41.9961 21.9375C39.7712 20.455 34.364 17.9375 33.1534 24.0951Z" fill="#FFE381" stroke="black" stroke-width="4" stroke-linecap="round"/>
<path d="M38.4492 61.1715C32.1231 56.3943 34.7848 36.2475 44.0934 36.2392C50.6309 33.3089 64.3194 35.4215 67.4309 44.2273C73.2013 60.5585 50.0262 69.9141 38.4492 61.1715Z" fill="#FF9822"/>
<path d="M44.0991 36.2392C34.7859 36.2392 32.1218 56.3933 38.4492 61.1715C50.0262 69.9141 73.2013 60.5585 67.4309 44.2273C64.3194 35.4215 50.6309 33.3089 44.0934 36.2392" stroke="black" stroke-width="4" stroke-linecap="round"/>
<circle cx="44.5012" cy="49.4966" r="3.5" transform="rotate(-26.4497 44.5012 49.4966)" fill="black"/>
<path d="M43.0909 46.2902C44.7913 45.5405 46.7976 46.2538 47.634 47.9349C48.4949 49.6656 47.7899 51.7665 46.0593 52.6275C44.8076 53.2502 43.3624 53.0534 42.3325 52.2422C42.3826 52.2201 42.4329 52.1977 42.4825 52.1731C44.2131 51.3121 44.9181 49.2111 44.0572 47.4805C43.8187 47.0012 43.4853 46.6007 43.0909 46.2902Z" fill="white"/>
<circle cx="55.4983" cy="46.4949" r="3.5" transform="rotate(-14.836 55.4983 46.4949)" fill="black"/>
<path d="M54.7659 43.0692C56.5825 42.6772 58.4041 43.7797 58.8849 45.5948C59.3799 47.4634 58.2663 49.3794 56.3978 49.8743C55.0463 50.2323 53.6704 49.7486 52.8249 48.7467C52.8784 48.7351 52.9322 48.7233 52.9857 48.7092C54.8542 48.2142 55.9678 46.2982 55.4728 44.4297C55.3358 43.9122 55.0897 43.4527 54.7659 43.0692Z" fill="white"/>
<defs>
<filter id="filter0_d_2320_16120" x="13.5" y="13.5078" width="75.6992" height="73.1953" filterUnits="userSpaceOnUse" color-interpolation-filters="sRGB">
<feFlood flood-opacity="0" result="BackgroundImageFix"/>
<feColorMatrix in="SourceAlpha" type="matrix" values="0 0 0 0 0 0 0 0 0 0 0 0 0 0 0 0 0 0 127 0" result="hardAlpha"/>
<feOffset/>
<feGaussianBlur stdDeviation="0.5"/>
<feComposite in2="hardAlpha" operator="out"/>
<feColorMatrix type="matrix" values="0 0 0 0 0 0 0 0 0 0 0 0 0 0 0 0 0 0 0.47 0"/>
<feBlend mode="normal" in2="BackgroundImageFix" result="effect1_dropShadow_2320_16120"/>
<feBlend mode="normal" in="SourceGraphic" in2="effect1_dropShadow_2320_16120" result="shape"/>
</filter>
</defs>
</svg>
